ply
format ascii 1.0
comment Created by Blender 2.92.0 - www.blender.org
element vertex 44
property float x
property float y
property float z
element face 44
property list uchar uint vertex_indices
end_header
-1.000000 2.153828 -1.000000
-1.000000 2.153828 0.415659
-1.000000 3.482652 0.415659
-1.000000 3.482652 -1.000000
1.000000 0.942454 0.415659
1.000000 2.153828 0.415659
-1.000000 0.942454 0.415659
-1.000000 0.942454 -1.000000
-1.000000 -1.854264 -0.762138
1.000000 -1.854264 -0.762138
1.000000 -1.854264 0.653521
-1.000000 -1.854264 0.653521
1.000000 0.942454 -1.000000
1.000000 2.153828 -1.000000
-1.000000 0.942454 -2.441931
1.000000 0.942454 -2.441931
-1.000000 -0.851645 -1.000000
1.000000 -0.851645 -1.000000
1.000000 -0.851645 0.415659
-1.000000 -0.851645 0.415659
-1.000000 2.153828 -2.441931
-1.000000 2.153828 -3.753551
-1.000000 1.057832 -3.670046
1.000000 2.153828 -2.441931
1.000000 2.153828 -3.753551
1.000000 1.057832 -3.670046
1.000000 3.478152 -2.414991
-1.000000 3.478152 -2.414991
1.000000 3.478152 -3.726610
-1.000000 3.478152 -3.726610
1.000000 3.482652 0.415659
1.000000 3.602265 0.905144
-1.000000 3.602265 0.905144
1.000000 3.482652 -1.000000
1.000000 4.733175 -1.000000
1.000000 4.733175 0.415659
-1.000000 4.733175 0.415659
-1.000000 4.733175 -1.000000
-1.000000 4.733175 -2.344763
1.000000 4.733175 -2.344763
-1.000000 4.566308 -3.545647
1.000000 4.566308 -3.545647
1.000000 4.852788 0.905144
-1.000000 4.852788 0.905144
4 0 1 2 3
4 4 5 1 6
4 6 1 0 7
4 8 9 10 11
4 12 13 5 4
4 12 7 14 15
4 16 7 12 17
4 17 12 4 18
4 19 6 7 16
4 18 4 6 19
4 14 20 21 22
4 13 12 15 23
4 0 13 23 20
4 7 0 20 14
4 22 21 24 25
4 20 23 26 27
4 15 14 22 25
4 23 15 25 24
4 23 24 28 26
4 21 20 27 29
4 24 21 29 28
4 2 30 31 32
4 5 13 33 30
4 13 0 3 33
4 1 5 30 2
4 30 33 34 35
4 3 2 36 37
4 33 3 27 26
4 3 37 38 27
4 34 33 26 39
4 28 29 40 41
4 39 26 28 41
4 27 38 40 29
4 38 39 41 40
4 32 31 42 43
4 30 35 42 31
4 35 36 43 42
4 36 2 32 43
4 10 18 19 11
4 11 19 16 8
4 9 17 18 10
4 8 16 17 9
4 36 35 34 37
4 38 37 34 39
